HIERARCHY
ROOT Hips
{
  OFFSET 3.13124 94.3669 -3.18751
  CHANNELS  6 Xposition Yposition Zposition Zrotation Xrotation Yrotation
  JOINT LeftUpLeg
  {
    OFFSET 8.64259 1.95398 -2.38835
    CHANNELS 3 Zrotation Xrotation Yrotation
    JOINT LeftLeg
    {
      OFFSET 43.7702 0 0
      CHANNELS 3 Zrotation Xrotation Yrotation
      JOINT LeftFoot
      {
        OFFSET 40.6238 0 0
        CHANNELS 3 Zrotation Xrotation Yrotation
        JOINT LeftToeBase
        {
          OFFSET 12.7242 0 0
          CHANNELS 3 Zrotation Xrotation Yrotation
          End Site
          {
            OFFSET 0 0 0
          }
        }
      }
    }
  }
  JOINT RightUpLeg
  {
    OFFSET -8.2249 1.95398 -2.59336
    CHANNELS 3 Zrotation Xrotation Yrotation
    JOINT RightLeg
    {
      OFFSET 43.5653 0 0
      CHANNELS 3 Zrotation Xrotation Yrotation
      JOINT RightFoot
      {
        OFFSET 40.6238 0 0
        CHANNELS 3 Zrotation Xrotation Yrotation
        JOINT RightToeBase
        {
          OFFSET 12.7242 0 0
          CHANNELS 3 Zrotation Xrotation Yrotation
          End Site
          {
            OFFSET 0 0 0
          }
        }
      }
    }
  }
  JOINT Spine
  {
    OFFSET 0.165834 0.87714 6.61349
    CHANNELS 3 Zrotation Xrotation Yrotation
    JOINT Spine1
    {
      OFFSET 7.38962 1.71661e-005 0
      CHANNELS 3 Zrotation Xrotation Yrotation
      JOINT Spine2
      {
        OFFSET 11.9445 1.14441e-005 0
        CHANNELS 3 Zrotation Xrotation Yrotation
        JOINT Spine3
        {
          OFFSET 14.7254 4.19617e-005 0
          CHANNELS 3 Zrotation Xrotation Yrotation
          JOINT Spine4
          {
            OFFSET 10.9679 0 0
            CHANNELS 3 Zrotation Xrotation Yrotation
            JOINT RightShoulder
            {
              OFFSET 2.46616 -1.6653 3.69651
              CHANNELS 3 Zrotation Xrotation Yrotation
              JOINT RightArm
              {
                OFFSET 13.0012 0 0
                CHANNELS 3 Zrotation Xrotation Yrotation
                JOINT RightForeArm
                {
                  OFFSET 28.7848 1.52588e-005 0
                  CHANNELS 3 Zrotation Xrotation Yrotation
                  JOINT RightHand
                  {
                    OFFSET 26.5688 1.52588e-005 0
                    CHANNELS 3 Zrotation Xrotation Yrotation
                    End Site
                    {
                      OFFSET 0 0 0
                    }
                  }
                }
              }
            }
            JOINT LeftShoulder
            {
              OFFSET 2.38034 -1.29275 -3.75231
              CHANNELS 3 Zrotation Xrotation Yrotation
              JOINT LeftArm
              {
                OFFSET 16.3182 6.10352e-005 0
                CHANNELS 3 Zrotation Xrotation Yrotation
                JOINT LeftForeArm
                {
                  OFFSET 27.0901 0 0
                  CHANNELS 3 Zrotation Xrotation Yrotation
                  JOINT LeftHand
                  {
                    OFFSET 24.5451 1.52588e-005 0
                    CHANNELS 3 Zrotation Xrotation Yrotation
                    End Site
                    {
                      OFFSET 0 0 0
                    }
                  }
                }
              }
            }
            JOINT Neck
            {
              OFFSET 5.0226 -0.0266342 0
              CHANNELS 3 Zrotation Xrotation Yrotation
              JOINT Head
              {
                OFFSET 6.69363 2.86102e-005 0
                CHANNELS 3 Zrotation Xrotation Yrotation
                End Site
                {
                  OFFSET 0 0 0
                }
              }
            }
          }
        }
      }
    }
  }
}
MOTION
Frames:	9
Frame Time:	0.0333333
2.24919 97.9889 -19.3642 170.706 -89.9989 170.764 -171.639 2.76662 92.5538 -8.6751 8.2309 1.23561 63.2439 1.5012 0.774851 28.7808 7.42536e-006 4.33373e-006 178.417 1.92639 87.2392 -7.50582 -1.51805 -0.0925428 62.6809 -1.30131 -0.660211 28.7808 1.42051e-005 2.26146e-005 0.00464128 6.34061 -90.0585 14.1935 -0.0048243 2.78542e-006 2.52251 -0.00356202 -2.55367e-006 -20.0127 -4.96229e-007 3.16819e-006 3.18055e-015 -2.07171e-015 1.25504e-014 100.873 -18.6665 -85.3678 -2.51625 41.2587 -16.4724 -2.07298 0.229372 -2.3953 -5.37983 -0.320028 -0.0162418 -79.0886 -21.4257 94.0748 16.4503 -34.4025 -5.02408 -2.22776 34.3806 -8.80011 1.2217 0.145335 3.13694 1.74882 0.00138493 0.000797176 -7.40835 0.0010917 0.000518624 
2.25214 97.9881 -19.4127 -123.562 -89.9721 -123.506 -171.653 2.76566 92.5399 -8.65456 8.29281 1.27225 63.2052 1.59303 0.827818 28.7808 7.42536e-006 4.33373e-006 178.406 1.8896 87.2252 -7.38542 -1.56605 -0.0926858 62.6067 -1.2463 -0.626848 28.7808 1.42051e-005 2.26146e-005 0.00504927 6.34056 -90.0635 14.1935 -0.0048243 2.78542e-006 2.52251 -0.00356202 -2.55367e-006 -20.0127 -4.96229e-007 3.16819e-006 4.54403e-031 -2.07481e-015 1.25483e-014 100.874 -18.6925 -85.4067 -2.50022 41.3257 -16.5147 -2.12265 0.229373 -2.39016 -5.37983 -0.320028 -0.0162418 -79.092 -21.4526 94.0313 16.4841 -34.4125 -4.96572 -2.22039 34.29 -8.81564 1.19832 0.144773 3.16823 1.6819 0.0229241 0.0143101 -7.38133 0.0175365 0.00603258 
2.25655 97.9956 -19.4722 -78.4696 -89.9886 -78.3764 -171.659 2.75551 92.5656 -8.49314 8.28196 1.2552 63.1066 1.61285 0.841605 28.7808 7.42536e-006 4.33373e-006 178.344 1.08628 87.2627 -5.59586 -1.61652 -0.0948419 61.7191 -1.24231 -0.608811 28.7808 1.42051e-005 2.26146e-005 0.00839453 6.34003 -90.1039 14.1935 -0.0048243 2.78542e-006 2.52251 -0.00356202 -2.55367e-006 -20.0127 -4.96229e-007 3.16819e-006 3.18055e-015 -2.07171e-015 1.25452e-014 100.907 -18.5191 -85.3915 -2.31291 41.2812 -16.5316 -2.14355 0.229369 -2.41192 -5.37983 -0.320028 -0.0162418 -79.0671 -21.3951 94.0377 16.3711 -34.3494 -4.99339 -2.32319 34.083 -8.77938 1.4649 0.159715 3.08908 1.76492 0.0348658 0.0303704 -7.54305 0.0212756 -0.0207368 
2.25426 97.9947 -19.5209 -174.632 -89.8696 -174.565 -171.637 2.74593 92.5567 -8.70023 8.29321 1.25268 63.1674 1.62454 0.845486 28.7808 7.42536e-006 4.33373e-006 178.399 1.71871 87.2382 -7.13835 -1.60665 -0.0965089 62.4557 -1.32427 -0.670466 28.7808 1.42051e-005 2.26146e-005 0.0050672 6.34055 -90.0643 14.1935 -0.0048243 2.78542e-006 2.52251 -0.00356202 -2.55367e-006 -20.0127 -4.96229e-007 3.16819e-006 1.59028e-015 -2.07481e-015 1.25498e-014 100.826 -18.7013 -85.4278 -2.52621 41.3191 -16.4841 -2.1163 0.229369 -2.41321 -5.37983 -0.320028 -0.0162418 -79.1323 -21.3582 94.0181 16.3029 -34.3248 -4.97568 -2.30321 33.5009 -8.83686 0.978105 0.125872 3.0191 1.53501 0.0120956 -0.0783266 -7.39488 0.0342193 0.0903758 
2.25497 97.9954 -19.5839 176.298 -89.873 176.361 -171.65 2.8057 92.5432 -8.73655 8.33549 1.27079 63.1574 1.63275 0.850055 28.7808 7.42536e-006 4.33373e-006 178.4 1.77418 87.2331 -7.1671 -1.59956 -0.0985947 62.4235 -1.29182 -0.650781 28.7808 1.42051e-005 2.26146e-005 0.00517064 6.34054 -90.0651 14.1935 -0.0048243 2.78542e-006 2.52251 -0.00356202 -2.55367e-006 -20.0127 -4.96229e-007 3.16819e-006 3.18055e-015 -2.0752e-015 1.25503e-014 100.889 -18.6043 -85.4913 -2.47922 41.3111 -16.3415 -2.14162 0.229364 -2.44671 -5.37983 -0.320028 -0.0162418 -79.0713 -21.3639 93.9591 16.3101 -34.2402 -4.89873 -2.38965 33.8139 -8.78924 1.38742 0.152727 3.031 1.53115 0.00474081 -0.1496 -7.38362 0.0408906 0.134814 
2.2632 97.9989 -19.6419 163.003 -89.8241 163.086 -171.652 2.76518 92.5538 -8.63897 8.35109 1.2624 63.0948 1.66182 0.868398 28.7808 7.42536e-006 4.33373e-006 178.373 1.44354 87.2479 -6.50035 -1.58029 -0.101003 62.0801 -1.31469 -0.658484 28.7808 1.42051e-005 2.26146e-005 0.00697252 6.34027 -90.0876 14.1935 -0.0048243 2.78542e-006 2.52251 -0.00356202 -2.55367e-006 -20.0127 -4.96229e-007 3.16819e-006 3.18055e-015 -2.08103e-015 1.25483e-014 100.871 -18.6265 -85.4301 -2.52952 41.2736 -16.2982 -2.10595 0.229362 -2.45587 -5.37983 -0.320028 -0.0162418 -79.0817 -21.3175 94.0137 16.1601 -34.1945 -4.98572 -2.43673 33.6781 -8.77744 1.46889 0.158464 3.04495 1.62497 -0.0290789 -0.251085 -7.49444 0.0574904 0.188713 
2.26938 97.9962 -19.7061 163.174 -89.7782 163.266 -171.651 2.7421 92.5606 -8.60588 8.40268 1.27439 63.1057 1.62803 0.850058 28.7808 7.42536e-006 4.33373e-006 178.369 1.45512 87.2501 -6.54019 -1.59812 -0.10364 62.0718 -1.34758 -0.677349 28.7808 1.42051e-005 2.26146e-005 0.00766773 6.34014 -90.0964 14.1935 -0.0048243 2.78542e-006 2.52251 -0.00356202 -2.55367e-006 -20.0127 -4.96229e-007 3.16819e-006 4.77083e-015 -2.0686e-015 1.25514e-014 100.838 -18.6072 -85.4778 -2.4737 41.2991 -16.2424 -2.14983 0.229365 -2.43581 -5.37983 -0.320028 -0.0162418 -79.0766 -21.3228 94.0572 16.0834 -34.1797 -5.00569 -2.45394 33.6273 -8.76948 1.65846 0.167627 2.95627 1.61257 -0.0287934 -0.268473 -7.45544 0.0635028 0.156688 
2.27575 97.9986 -19.7697 162.337 -89.7347 162.431 -171.646 2.77347 92.5614 -8.66419 8.40817 1.2699 63.0908 1.62349 0.846429 28.7808 7.42536e-006 4.33373e-006 178.374 1.51003 87.2419 -6.65859 -1.59867 -0.106408 62.0932 -1.28385 -0.640412 28.7808 1.42051e-005 2.26146e-005 0.0071428 6.34026 -90.0897 14.1935 -0.0048243 -4.9619e-005 2.52254 -0.00356202 -5.51832e-005 -20.0126 2.36101e-005 -4.39681e-005 2.869e-005 2.41232e-005 -4.71528e-005 100.778 -18.6342 -85.545 -2.55162 41.2499 -16.0796 -2.1054 0.229366 -2.43198 -5.37983 -0.320028 -0.0162418 -79.1019 -21.3539 94.0659 16.0795 -34.1678 -4.97844 -2.4107 33.8059 -8.83146 1.65745 0.177278 3.22198 1.62513 -0.0572559 -0.283365 -7.44352 0.0654239 0.141854 
2.28529 98.0048 -19.8366 164.954 -89.7114 165.081 -171.64 2.78261 92.5845 -8.64535 8.39418 1.25901 63.0626 1.64697 0.860331 28.7808 7.42536e-006 4.33373e-006 178.342 0.999713 87.2642 -5.57769 -1.65759 -0.109216 61.5669 -1.29769 -0.639683 28.7808 1.42051e-005 2.26146e-005 0.00796881 6.33999 -90.1021 14.1929 -0.0048243 0.00105007 2.52195 -0.00356202 0.00105317 -20.0132 -0.000503109 0.000945805 -0.00055168 -0.000502133 0.000942475 100.746 -18.6641 -85.6468 -2.55669 41.2241 -15.9802 -2.09692 0.229371 -2.40429 -5.37983 -0.320028 -0.0162418 -79.0795 -21.3383 94.0982 16.0816 -34.1142 -4.93816 -2.53048 33.5912 -8.73239 1.69005 0.180953 2.98272 1.58673 -0.0427329 -0.288541 -7.36565 0.0669358 0.110202 
